<?xml version="1.0" encoding="UTF-8" standalone="no"?>
<!-- Created with Inkscape (http://www.inkscape.org/) -->

<svg
   xmlns:dc="http://purl.org/dc/elements/1.1/"
   xmlns:cc="http://creativecommons.org/ns#"
   xmlns:rdf="http://www.w3.org/1999/02/22-rdf-syntax-ns#"
   xmlns:svg="http://www.w3.org/2000/svg"
   xmlns="http://www.w3.org/2000/svg"
   xmlns:xlink="http://www.w3.org/1999/xlink"
   xmlns:sodipodi="http://sodipodi.sourceforge.net/DTD/sodipodi-0.dtd"
   xmlns:inkscape="http://www.inkscape.org/namespaces/inkscape"
   width="2721"
   height="2720.9998"
   id="svg2"
   version="1.1"
   inkscape:version="0.48.2 r9819"
   inkscape:export-filename="c:\SA\MediaSoft\SoundRecorder\Resources\bimap96.png"
   inkscape:export-xdpi="3.1800001"
   inkscape:export-ydpi="3.1800001"
   sodipodi:docname="Microphone.svg">
  <defs
     id="defs4">
    <linearGradient
       inkscape:collect="always"
       id="linearGradient3943">
      <stop
         style="stop-color:#827dff;stop-opacity:1"
         offset="0"
         id="stop3945" />
      <stop
         style="stop-color:#ffcef6;stop-opacity:1"
         offset="1"
         id="stop3947" />
    </linearGradient>
    <linearGradient
       inkscape:collect="always"
       xlink:href="#linearGradient3943"
       id="linearGradient3949"
       x1="240"
       y1="-947.63782"
       x2="240"
       y2="1772.3622"
       gradientUnits="userSpaceOnUse" />
  </defs>
  <sodipodi:namedview
     id="base"
     pagecolor="#ffffff"
     bordercolor="#666666"
     borderopacity="1.0"
     inkscape:pageopacity="0.0"
     inkscape:pageshadow="2"
     inkscape:zoom="0.175"
     inkscape:cx="1594.43"
     inkscape:cy="1393.6519"
     inkscape:document-units="px"
     inkscape:current-layer="layer1"
     showgrid="false"
     showborder="false"
     inkscape:window-width="1366"
     inkscape:window-height="706"
     inkscape:window-x="-8"
     inkscape:window-y="-8"
     inkscape:window-maximized="1"
     fit-margin-top="0"
     fit-margin-left="0"
     fit-margin-right="0"
     fit-margin-bottom="0">
    <inkscape:grid
       type="xygrid"
       id="grid2999"
       empspacing="5"
       visible="true"
       enabled="true"
       snapvisiblegridlinesonly="true" />
  </sodipodi:namedview>
  <metadata
     id="metadata7">
    <rdf:RDF>
      <cc:Work
         rdf:about="">
        <dc:format>image/svg+xml</dc:format>
        <dc:type
           rdf:resource="http://purl.org/dc/dcmitype/StillImage" />
        <dc:title></dc:title>
      </cc:Work>
    </rdf:RDF>
  </metadata>
  <g
     inkscape:label="Layer 1"
     inkscape:groupmode="layer"
     id="layer1"
     transform="translate(2080.5,948.13782)">
    <rect
       style="fill:url(#linearGradient3949);fill-opacity:1;stroke:#000000;stroke-opacity:1"
       id="rect3856"
       width="2720"
       height="2719.9998"
       x="-2080"
       y="-947.63782" />
    <g
       id="g3936">
      <g
         transform="translate(-1440,-80)"
         id="g4074">
        <path
           inkscape:connector-curvature="0"
           id="path3917-4"
           transform="translate(1420,40)"
           d="m -700,-587.625 c -353.4622,0 -640,286.53776 -640,640 l 0,600 0,40 1.2188,0 c 20.6539,334.8233 298.7572,600 638.7812,600 340.024,0 618.096,-265.1767 638.75,-600 l 1.25,0 0,-40 0,-600 c 0,-353.46224 -286.5378,-640 -640,-640 z m -920,1000 0,280 0.875,0 c 19.8033,462.8656 381.6021,837.1449 839.125,876.5625 l 0,243.4375 160,0 0,-243.4375 c 457.5229,-39.4176 819.3217,-413.6969 839.125,-876.5625 l 0.875,0 0,-240 -160,0 0,240 -1.0625,0 c -20.81,401.1337 -352.6249,720 -758.9375,720 -406.3127,0 -738.1275,-318.8663 -758.9375,-720 l -1.0625,0 0,-280 -160,0 z"
           style="fill:#000000;fill-opacity:1;fill-rule:nonzero;stroke:none" />
      </g>
      <path
         id="path3917-4-9"
         d="m -520,-147.62502 c -22.16,0 -40,17.84 -40,40 0,22.160003 17.84,40.000003 40,40.000003 l 435.03125,0 c -3.3967,-27.235944 -8.51031,-53.938043 -15.21875,-80.000003 l -419.8125,0 z"
         style="fill:#ffffff;fill-opacity:1;fill-rule:nonzero;stroke:none"
         inkscape:connector-curvature="0" />
      <path
         id="path3917-4-4"
         d="m -520,12.374983 c -22.16,0 -40,17.84 -40,40 0,22.16 17.84,40 40,40 l 440,0 0,-80 -440,0 z"
         style="fill:#ffffff;fill-opacity:1;fill-rule:nonzero;stroke:none"
         inkscape:connector-curvature="0" />
      <path
         id="path3917-4-8"
         d="m -520,172.375 c -22.16,0 -40,17.84 -40,40 0,22.16 17.84,40 40,40 l 440,0 0,-80 -440,0 z"
         style="fill:#ffffff;fill-opacity:1;fill-rule:nonzero;stroke:none"
         inkscape:connector-curvature="0" />
    </g>
  </g>
</svg>
